<?xml version="1.0" encoding="utf-8"?>
<!-- Generator: Adobe Illustrator 19.0.0, SVG Export Plug-In . SVG Version: 6.00 Build 0)  -->
<svg version="1.1" xmlns="http://www.w3.org/2000/svg" xmlns:xlink="http://www.w3.org/1999/xlink" x="0px" y="0px"
	 viewBox="0 0 1600 1200" style="enable-background:new 0 0 1600 1200;" xml:space="preserve">
<style type="text/css">
	.st0{fill:#283655;}
	.st1{fill:#1E1F26;}
	.st2{fill:#C3D7D1;}
	.st3{fill:#FFFFFF;}
	.st4{fill:#3F2C3C;}
	.st5{fill:#FFD3AD;}
	.st6{fill:#E99D69;}
	.st7{fill:#E6BB96;}
	.st8{fill:#85CC60;}
	.st9{fill:#191919;}
	.st10{fill:#188AFF;}
	.st11{fill:#EA728C;}
	.st12{fill:#FFB0C1;}
	.st13{fill:#1A1A1A;}
	.st14{fill:#333333;}
	.st15{fill:#E3E3E3;}
	.st16{fill:#EB4142;}
	.st17{fill:#F95657;}
	.st18{fill:#8C798A;}
	.st19{fill:#CE4257;}
	.st20{fill:#4C3A4A;}
	.st21{fill:#A34B3D;}
	.st22{fill:#EDA471;}
	.st23{fill:#CB7748;}
	.st24{fill:#4D648D;}
</style>
<g id="Layer_2">
	<rect id="XMLID_215_" class="st0" width="1600" height="1200"/>
</g>
<g id="Layer_1">
	<polygon id="XMLID_125_" class="st1" points="697.7,168.3 1531.9,961.9 697.7,961.9 	"/>
	<g id="XMLID_152_">
		<rect id="XMLID_153_" x="395" y="168.3" class="st2" width="302.7" height="127.7"/>
		<rect id="XMLID_154_" x="77.4" y="168.3" class="st2" width="302.7" height="127.7"/>
		<rect id="XMLID_207_" x="395" y="311.1" class="st2" width="302.7" height="590"/>
		<rect id="XMLID_211_" x="395" y="916.1" class="st2" width="302.7" height="45.8"/>
		<rect id="XMLID_205_" x="77.4" y="311.1" class="st2" width="302.7" height="590"/>
		<rect id="XMLID_209_" x="77.4" y="916.1" class="st2" width="302.7" height="45.8"/>
	</g>
	<g id="XMLID_139_">
		<g id="XMLID_128_">
			<path id="XMLID_137_" class="st3" d="M1105.5,626c16.8-9.6,36.2-12.2,55.1-14.1c19.4-2,39-3,58.6-2.4c19.7,0.6,39.9,2.3,59.1,7.3
				c17.3,4.5,34.1,13.1,43,29.3c4.4,8,6.3,17.2,4.2,26.2c-2,8.7-7.2,16.2-12.1,23.4c-9.7,14.3-18,29.3-24.3,45.5
				c-3.3,8.4-6,17-8.1,25.8c-1.8,7.3-3.8,15.1-3.5,22.8c0.7,15.4,14.1,21.8,28.1,22.2c13.7,0.4,28.4-5.3,37-16.2
				c7.2-9,10.8-22.3,6.7-33.4c-4.7-13-17.9-16.8-30.5-17.3c-17.1-0.7-35.9-0.6-52,5.8c-13.3,5.3-24.9,15.3-28.6,29.6
				c-3.9,15.1,1,31.2,7.7,44.8c7.7,15.7,17.9,30.4,29.2,43.7c10.5,12.3,23.5,25,26.8,41.4c3.8,18.7-8.6,35.2-23.7,44.6
				c-15,9.3-34.6,16.2-52.3,17.3c-9.6,0.6-19.1-1.1-27.4-6.2c-6.9-4.3-12.5-10.3-17.8-16.3c-10.1-11.6-20-24.2-35.1-29.3
				c-6.5-2.2-13.3-2.4-19.8-0.2c-1.8,0.6-1,3.5,0.8,2.9c16.9-5.8,32.7,6.7,43.3,18.6c9.7,10.9,18.7,23.6,32.5,29.7
				c14.7,6.5,31.4,3.8,46.3-0.8c14.9-4.6,30.4-10.6,41.9-21.5c10.1-9.6,16.7-23.2,14.7-37.4c-2.1-14.3-11.7-26.1-20.8-36.8
				c-11.5-13.5-22.3-27.1-31.2-42.5c-8.4-14.7-16.2-32.6-12.5-49.9c3.7-17.2,19.1-27.7,35.3-31.7c9.6-2.4,19.4-2.9,29.2-3
				c8.1-0.1,16.6-0.6,24.5,1.4c16.4,4.1,21.4,20.2,15.9,35c-5.7,15.1-21.3,24-37,24.6c-8.4,0.3-19.8-1.4-25.1-8.9
				c-5.1-7.3-3-17.5-1.3-25.5c3.6-16.9,9.3-33.4,16.9-49c3.8-7.8,8.2-15.4,13-22.7c4.6-7.1,9.9-13.8,13.4-21.6
				c5.8-12.8,4.5-26.8-2.8-38.7c-17.5-28.7-56.6-32.9-86.9-35.2c-19.2-1.5-38.4-1.3-57.6,0c-17.4,1.2-35.3,2.6-52.2,7.1
				c-7.7,2.1-15.1,5-22,8.9C1102.3,624.4,1103.9,627,1105.5,626L1105.5,626z"/>
		</g>
		<path id="XMLID_97_" class="st4" d="M1110.7,627.2L1110.7,627.2c-0.3,0-0.5-0.2-0.5-0.5v-10.4c0-0.3,0.2-0.5,0.5-0.5l0,0
			c0.3,0,0.5,0.2,0.5,0.5v10.4C1111.2,627,1111,627.2,1110.7,627.2z"/>
	</g>
	<g id="XMLID_105_">
		<path id="XMLID_51_" class="st5" d="M1103.2,667H965.1c-3.8,0-6.9-3.1-6.9-6.9v-55.7c0-3.8,3.1-6.9,6.9-6.9h138.1
			c3.8,0,6.9,3.1,6.9,6.9V660C1110.1,663.9,1107,667,1103.2,667z"/>
		<polygon id="XMLID_73_" class="st5" points="984,437.8 948.6,576.5 1011.5,576.5 1054.6,437.8 		"/>
		<polygon id="XMLID_74_" class="st5" points="1049.4,454.7 1162,493.8 1111.3,576.5 1011.5,576.5 		"/>
		<rect id="XMLID_75_" x="968.3" y="576.2" class="st6" width="132" height="21.2"/>
		<polygon id="XMLID_88_" class="st7" points="1049.4,454.7 1162,493.8 1016,576.2 1011.6,576.2 		"/>
		<path id="XMLID_89_" class="st7" d="M1101.8,622h-135c-0.8,0-1.5-0.7-1.5-1.5l0,0c0-0.8,0.7-1.5,1.5-1.5h135
			c0.8,0,1.5,0.7,1.5,1.5l0,0C1103.3,621.3,1102.6,622,1101.8,622z"/>
		<path id="XMLID_90_" class="st7" d="M1101.8,633.5h-135c-0.8,0-1.5-0.7-1.5-1.5l0,0c0-0.8,0.7-1.5,1.5-1.5h135
			c0.8,0,1.5,0.7,1.5,1.5l0,0C1103.3,632.8,1102.6,633.5,1101.8,633.5z"/>
		<path id="XMLID_91_" class="st7" d="M1101.6,645.2h-135c-0.8,0-1.5-0.7-1.5-1.5l0,0c0-0.8,0.7-1.5,1.5-1.5h135
			c0.8,0,1.5,0.7,1.5,1.5l0,0C1103.1,644.5,1102.5,645.2,1101.6,645.2z"/>
		<g id="XMLID_94_">
			<polygon id="XMLID_107_" class="st7" points="961.9,576.5 960.9,576.5 994.4,437.8 995.4,437.8 			"/>
		</g>
		<g id="XMLID_93_">
			<path id="XMLID_148_" class="st7" d="M988,562.6h-10.5l3.1-12.5h10.5L988,562.6z M978.8,561.6h8.5l2.6-10.5h-8.5L978.8,561.6z"/>
		</g>
		<g id="XMLID_95_">
			<path id="XMLID_145_" class="st7" d="M991.6,547.5h-10.5l3.1-12.5h10.5L991.6,547.5z M982.4,546.5h8.5l2.6-10.5H985L982.4,546.5z
				"/>
		</g>
		<g id="XMLID_96_">
			<path id="XMLID_131_" class="st7" d="M995.3,532.8h-10.5l3.1-12.5h10.5L995.3,532.8z M986,531.8h8.5l2.6-10.5h-8.5L986,531.8z"/>
		</g>
		<polygon id="XMLID_98_" class="st8" points="998.2,517.3 988.7,517.3 991.6,505.8 1001.1,505.8 		"/>
		<polygon id="XMLID_99_" class="st5" points="1147.6,517.3 1165.6,517.3 1135.1,566.1 1117.7,566.1 		"/>
		<g id="XMLID_116_">
			<path id="XMLID_106_" class="st3" d="M991.9,567.9h-63.8l0.2-0.6l35.4-139.1h71.7l-0.2,0.6L991.9,567.9z M929.4,566.9h61.8
				l42.9-137.7h-69.6L929.4,566.9z"/>
		</g>
		<g id="XMLID_117_">
			<path id="XMLID_135_" class="st3" d="M1122.4,567.3h-100.8l0.2-0.6l38.1-122.4l113.6,39.5L1122.4,567.3z M1023,566.3h98.9
				l50.2-82l-111.5-38.7L1023,566.3z"/>
		</g>
		<path id="XMLID_151_" class="st3" d="M982.8,442.3c0,0-35.5,41.6-30.1,118.1L982.8,442.3z"/>
	</g>
	<path id="XMLID_102_" class="st9" d="M757.7,993.3H641.3c-0.9,0-1.7-0.8-1.7-1.7l0,0c0-0.9,0.8-1.7,1.7-1.7h116.3
		c0.9,0,1.7,0.8,1.7,1.7l0,0C759.3,992.6,758.6,993.3,757.7,993.3z"/>
	<polygon id="XMLID_45_" class="st4" points="932.3,667 829.6,667 822.3,647.7 939.6,647.7 	"/>
	<path id="XMLID_52_" class="st10" d="M836.5,662l2.2-5c0.3-0.7,0.9-1.4,1.6-1.7l13.9-7.4c0.5-0.3,1.1-0.4,1.7-0.4h22.3
		c0.5,0,1.1,0.1,1.6,0.4l26.2,12.4c1.3,0.6,2.1,1.9,2.1,3.3l0,0c0,2-1.6,3.7-3.7,3.7h-64.6C837.2,667.2,835.4,664.4,836.5,662z"/>
	<polygon id="XMLID_57_" class="st4" points="923,649.5 917.2,649.5 915.9,644.7 924.3,644.7 	"/>
	<polygon id="XMLID_58_" class="st4" points="909.4,649.5 898,649.5 895.2,644.7 911.9,644.7 	"/>
	<polygon id="XMLID_59_" class="st4" points="935.4,649.5 929.7,649.5 928.3,644.7 936.7,644.7 	"/>
	<g id="XMLID_78_">
		<path id="XMLID_138_" class="st4" d="M1111.4,642.4c2.8,0.1,8.9,1.6,8.9,5.1c0,2.5-4.2,5.4-6.1,6.3c-2.8,1.5-5.9,2.1-9.1,2.2
			c-4.6,0.2-9.6-1-13.8-2.9c-5.3-2.5-7.3-6.5-8.2-12c-1-5.6-2-11.1-8.3-12.3c-7.5-1.4-15.9,1-22.2,5c-8.4,5.5-14.8,13.2-24.8,15.9
			c-6,1.6-13.5,1.3-18.4-3.1c-4.9-4.4-5.7-13.5,1.4-16.3c4-1.5,7.8,1.4,7.7,5.4c-0.1,4.8-3.7,8.7-7.4,11.3
			c-8.5,5.9-20.2,7.5-30.1,9.4c-24.2,4.8-48.8,6.8-73.4,6.2c-1,0-1,1.5,0,1.5c29.8,0.7,59.7-2.3,88.6-9.6
			c8.8-2.2,20.6-6.1,23.4-15.9c1.4-5.1-0.5-10.9-6.8-10.4c-8.7,0.7-10.9,11-6.4,17.2c5.9,8.4,18.1,7.7,26.6,4.1
			c13.4-5.7,21.1-19.2,37-19.5c4.8-0.1,9.1,0.9,10.6,6c0.6,2,0.8,4.1,1.2,6.1c0.9,5.1,2.7,8.9,7.4,11.6c8.5,4.8,21.7,6,29.4-1
			c2-1.9,4.5-5.1,2.7-7.8c-1.7-2.5-7.1-3.9-9.9-3.9C1110.5,640.9,1110.5,642.4,1111.4,642.4L1111.4,642.4z"/>
	</g>
	<path id="XMLID_92_" class="st4" d="M1110.7,647.1L1110.7,647.1c-0.3,0-0.5-0.2-0.5-0.5v-10.4c0-0.3,0.2-0.5,0.5-0.5l0,0
		c0.3,0,0.5,0.2,0.5,0.5v10.4C1111.2,646.8,1111,647.1,1110.7,647.1z"/>
	<polygon id="XMLID_101_" class="st7" points="1147.6,517.3 1153.8,517.3 1117.7,566.1 	"/>
	<g id="XMLID_119_">
		<path id="XMLID_21_" class="st11" d="M901.4,573.4l3.4,4.1c0,0-2.2,4.9-14.9-0.6c0,0-1.8,11.1-8.4,12.5l-0.6-9.9l-7.1-4.2
			c0,0,1,8.5-2.7,11.2l-5.4,0.2v-10.8c0,0-5.7-4.9-10.7-4.5l10.5-5.4l33.7,4.3L901.4,573.4z"/>
		<path id="XMLID_44_" class="st12" d="M812.4,565.9h16.7c0,0,32.5-9,39.9-7.6c7.4,1.4,22.4,4.7,22.4,4.7l13.9,9c0,0-6.5,4.5-17-2.2
			c0,0-21.1-1.5-25.1,0c0,0-13.2,2.2-11.7,9.2c0,0,4,4.5,8.1,4.3c4.2-0.2,23.1-1.4,23.9,4.3c0,0,1.1,5.2-13.7,4.7
			c-14.8-0.5-29.3,0-29.3,0l-27.9-5.7L812.4,565.9z"/>
		<path id="XMLID_29_" class="st11" d="M761.7,753.8c44.2-85.7-45.7-78.9-45.7-78.9l-59.4,262.4c0,0-12,8.2-11.6,17.6
			c0.4,9.4,41.3,35.2,41.3,35.2h19.1c8.6-6.7-10.9-13.4-10.9-13.4c-15.5-8.4-10-39.4-10-39.4S717.5,839.5,761.7,753.8z"/>
		<polygon id="XMLID_33_" class="st13" points="603.7,464.3 659,538.4 806.9,559.4 806.9,593.3 630.3,597.4 566.4,523.4 		"/>
		<path id="XMLID_43_" class="st12" d="M889.1,1013.1c-15.9-2.5-62.5-11.5-69.1-31.4c-28.6-270.7-89.7-272-89.7-272l-27,87.5
			c39.6,3.6,72.4,184.5,72.4,184.5s-19.6,47.2-9.6,47.2h118.7c5.3,0,9.6-4.3,9.6-9.6C894.4,1016.2,892.1,1013.6,889.1,1013.1z"/>
		<path id="XMLID_31_" class="st0" d="M606.2,669.5c0,0,101.5-9.9,112,0s-27.1,108.4-27.1,108.4l-87.5-17.3L606.2,669.5z"/>
		<path id="XMLID_53_" class="st3" d="M694.8,804.9c0,0-4.4-2.6-148.8-12.9c-71.8,2.7-97.8-23-106.4-48.1
			c-6.6-19.4-2.8-38.4-1.5-43.7c0.2-0.9,0.4-1.4,0.4-1.4c54.5-32.7,126.9-32.9,186-24.9c0,0,0,0,0,0c60,8.2,106.4,24.9,106.4,24.9
			C738.3,775.1,694.8,804.9,694.8,804.9z"/>
		<path id="XMLID_30_" class="st12" d="M603.7,401.9l-4.5,56.8l-2.5,31.9c-34.7-8.4-48.6-54.4-48.6-54.4l25.9-43.5L603.7,401.9z"/>
		<path id="XMLID_27_" class="st11" d="M603.7,401.9l-4.5,56.8c-28.3-28.3-25.2-66-25.2-66L603.7,401.9z"/>
		<path id="XMLID_71_" class="st12" d="M649.5,379.4c-1.6,2.5-3.4,5-5.3,7.8l6.5,1c0,0,0,0,0,0.1c0.1,0.8,0.7,7.8-10.3,10.2
			l2.8,46.1c0,0-68.8-13.4-69.3-54c-0.1-7.4,0.3-14.4,1-20.8l2.3-14.6v0l0-0.1c4-20.2,10.3-32.4,10.3-32.4l77.9,15.3
			c0,0,2.5,8.7-8.8,29.5C654.7,371.1,652.3,375,649.5,379.4z"/>
		<path id="XMLID_69_" class="st1" d="M643.2,444.5c0,0-68.8-13.4-69.3-54c-0.1-7.4,0.3-14.4,1-20.8l2.3-14.6v0l0-0.1l10.9,3.7
			l22,39.4l30.3,0.3L643.2,444.5z"/>
		<path id="XMLID_23_" class="st11" d="M640.4,398.4c-2.3-3.2,3.8-11.3,3.8-11.3l6.5,1.1C650.8,389,651.4,396,640.4,398.4z"/>
		<polygon id="XMLID_2_" class="st1" points="657.8,363.7 659,369.8 641.6,367.3 642,364.5 		"/>
		<path id="XMLID_22_" class="st1" d="M693.6,303.9c-5.2-8.9-14.9-14.9-25.9-14.9c-11.2,0-21,6.2-26.1,15.3
			c-2.1-1.6-4.7-2.6-7.6-2.6c-4.7,0-8.8,2.6-10.9,6.4c-1.7-1.3-3.8-2.1-6.2-2.1c-4.7,0-8.6,3.2-9.9,7.5c-1.8-1.4-4-2.3-6.4-2.3
			c-2.4,0-4.6,0.8-6.4,2.2c-0.3,0-0.6,0-1,0c-1.6,0-3.1,0.4-4.4,1c-7-1.3-27.9-2.2-11.8,40.8L591,364c0,0,10-6.7,12.6-21.4
			c0,0,51.1,18,69.2,10.7c5.8-2.4,12.6-8.4,18.1-15.5c0,0,0,0,0.1-0.1c0.6-0.7,1.1-1.5,1.7-2.2c3.2-4.7,5-10.4,5-16.6
			C697.7,313.4,696.2,308.3,693.6,303.9z"/>
		<path id="XMLID_13_" class="st12" d="M592.8,357c0,0-6.1-23.6-10.2-6.8c-4.1,16.9-0.3,18.1,3,16.1
			C588.9,364.3,592.8,357,592.8,357z"/>
		<path id="XMLID_17_" class="st11" d="M589.3,354.8c-0.1,0-2.8-7.1-4.2-3.1c-1.3,4-3.2,12.8-1.3,11.7s5.2-5,5.2-5l-4.4,2.4
			L589.3,354.8z"/>
		<path id="XMLID_64_" class="st14" d="M624.5,673.8l-54.9,7.8l-133.3,18.8c0,0-12-185.7,90.2-241.7l11-5.7L548,427
			c0,0,50.1,34.3,55.6,37.3c0,0-1.2,29.1,0,67.3c0.6,20.4,2,43.4,4.5,66C611.4,625.7,616.5,653.1,624.5,673.8z"/>
		<path id="XMLID_46_" class="st13" d="M624.5,673.9l-54.9,7.8c-58.8-76.3-66.1-174.4-66.1-174.4l104.7,90.4
			C611.4,625.7,616.5,653.1,624.5,673.9z"/>
		<path id="XMLID_39_" class="st14" d="M564.4,470.5L629.7,607l167.3,33.1v29.4c0,0-185.7,2.9-196.7-5.9
			c-11-8.8-85.9-107.2-96.9-156.3L564.4,470.5z"/>
		<path id="XMLID_50_" class="st15" d="M624.5,673.9c-1,0.7-134.1,90.2-184.9,70c-6.6-19.4-2.8-38.4-1.5-43.7L624.5,673.9z"/>
		<path id="XMLID_68_" class="st12" d="M901.8,656.7c-5.6,4.9-13.1-2.9-13.1-2.9l3.1,10.5c-4.6,5.9-11.6-7.7-11.6-7.7
			c1.3,6.2,0,9.4,0,9.4c-6.1,0-8-6.3-8-6.3l-4.4-3.7h-9c-6.9,10.1-26.4,11.2-26.4,11.2l-26.4-1.1l-4.4-0.1V644h5.6
			c11.3,2.3,44.9-11.3,44.9-11.3c5.3,0.2,23.6-2.6,23.6-2.6c10.5,1.7,18.7,12.2,18.7,12.2c0,1.8-2.3,2.2-4.2,2.2
			c-1.2,0-2.3-0.1-2.5-0.1l0,0C903,653.1,901.8,656.7,901.8,656.7z"/>
		<path id="XMLID_65_" class="st11" d="M894.4,642.2c0,1.8-2.3,2.2-4.2,2.2l-2.5-0.1l0,0l-4.5-4l-31-7.7c5.3,0.2,23.6-2.6,23.6-2.6
			C886.3,631.7,894.4,642.2,894.4,642.2z"/>
		<rect id="XMLID_47_" x="806.9" y="560.4" class="st3" width="5.5" height="31.5"/>
		<rect id="XMLID_54_" x="797.1" y="641.6" class="st3" width="4.5" height="26.9"/>
		<polygon id="XMLID_48_" class="st3" points="603.7,464.3 591.9,498.1 537.5,453 548,427 		"/>
		<polygon id="XMLID_56_" class="st15" points="591.9,498.1 603.7,536.8 603.7,464.3 		"/>
		<g id="XMLID_28_">
			<path id="XMLID_81_" class="st3" d="M641.2,446.7l-0.6,0c-0.4,0-42.5-2.7-61.4-30.2c-10.7-15.6-12-36.1-3.9-60.9l1,0.3
				c-8,24.5-6.7,44.7,3.8,60.1c17.4,25.4,54.9,29.3,60,29.8l-3.2-44.4l-28.3,2.6l-18-39.6l0.9-0.4l17.7,38.9l28.6-2.6L641.2,446.7z"
				/>
		</g>
		<g id="XMLID_60_">
			<path id="XMLID_80_" class="st3" d="M582.6,407.9c-10.2-14.9-4.9-47.8-4.7-49.2l1,0.2c-0.1,0.3-5.5,34,4.5,48.5L582.6,407.9z"/>
		</g>
		<g id="XMLID_61_">
			
				<rect id="XMLID_79_" x="623.4" y="414.1" transform="matrix(7.062949e-002 0.9975 -0.9975 7.062949e-002 1001.6532 -245.9487)" class="st3" width="18.9" height="1"/>
		</g>
		<g id="XMLID_62_">
			
				<rect id="XMLID_77_" x="629.5" y="432.4" transform="matrix(6.410483e-002 0.9979 -0.9979 6.410483e-002 1025.3888 -227.6508)" class="st3" width="9.1" height="1"/>
		</g>
		<g id="XMLID_63_">
			<path id="XMLID_87_" class="st3" d="M663,348.7l-0.6-0.8c14.6-11.5,21.6-22.6,20.9-33.1c-0.9-12.9-13.7-20.3-13.8-20.3l0.5-0.9
				c0.1,0.1,13.3,7.7,14.3,21.1C685,325.6,677.9,337,663,348.7z"/>
		</g>
		<g id="XMLID_66_">
			<path id="XMLID_86_" class="st3" d="M671.1,326.9l-0.7-0.7c4-3.6,5.9-7.7,5.8-11.9c-0.2-8.4-8.3-15-8.4-15.1l0.6-0.8
				c0.3,0.3,8.5,7,8.8,15.8C677.4,318.7,675.3,323,671.1,326.9z"/>
		</g>
		<g id="XMLID_19_">
			<path id="XMLID_85_" class="st3" d="M579.5,342c-3.4-9.2-3.5-16-0.3-20.2c3.6-4.7,9.9-4.2,10.2-4.2l-0.1,1
				c-0.1,0-6.1-0.4-9.3,3.8c-3,3.9-2.8,10.4,0.4,19.2L579.5,342z"/>
		</g>
		<g id="XMLID_67_">
			<path id="XMLID_82_" class="st3" d="M658.1,368.2l-18.6-2.6l0.5-3.7l16.7-0.9L658.1,368.2z M640.6,364.8l16.2,2.3l-1-5l-15,0.8
				L640.6,364.8z"/>
		</g>
		<g id="XMLID_72_">
			<path id="XMLID_123_" class="st3" d="M629.3,607.2c-0.4-1.1-42.5-107-77.1-117.9c-5.2-1.7-10.1-1.1-14.4,1.8l-0.5-0.8
				c4.6-3,9.7-3.7,15.3-1.9c35.1,11.1,76,114.1,77.7,118.5L629.3,607.2z"/>
		</g>
		<g id="XMLID_70_">
			<polygon id="XMLID_118_" class="st3" points="806.9,559.9 658.7,538.8 658.6,538.7 603.7,464.3 604.1,464 659.3,537.9 807,558.9 
							"/>
		</g>
		<circle id="XMLID_110_" class="st3" cx="784.9" cy="664.5" r="2.3"/>
		<circle id="XMLID_113_" class="st3" cx="775.2" cy="664.5" r="2.3"/>
		<path id="XMLID_120_" class="st16" d="M604.5,539c0,0,2.5,2.7,5.7,7.1c0.8,1.1,1.7,2.3,2.6,3.6c0.9,1.3,1.8,2.6,2.8,4.1
			c0.9,1.4,1.9,2.9,2.8,4.4c0.9,1.5,1.9,3.1,2.8,4.6c0.9,1.6,1.8,3.2,2.6,4.7c0.9,1.6,1.7,3.1,2.4,4.7c1.5,3.1,2.8,6,3.9,8.5
			c0.5,1.3,1,2.4,1.4,3.5c0.4,1,0.7,2,0.9,2.7c0.5,1.5,0.7,2.4,0.7,2.4s-0.5-0.8-1.3-2.2c-0.4-0.7-0.9-1.5-1.4-2.5
			c-0.6-1-1.2-2-1.9-3.2c-2.7-4.7-6.4-10.9-10-17.2c-0.9-1.6-1.8-3.1-2.7-4.7c-0.9-1.5-1.7-3.1-2.6-4.5c-0.9-1.5-1.6-2.9-2.4-4.3
			c-0.8-1.4-1.5-2.6-2.1-3.8c-1.3-2.4-2.4-4.4-3.1-5.8C604.9,539.8,604.5,539,604.5,539z"/>
		<path id="XMLID_121_" class="st17" d="M814.3,526.7c-1.1-0.2-2.5-0.5-4-0.8c-1.6-0.3-3.4-0.7-5.5-1c-2.1-0.3-4.4-0.7-6.9-1.1
			c-2.5-0.3-5.2-0.6-8.1-0.9c-1.5-0.2-3-0.2-4.5-0.3c-1.6-0.1-3.2-0.2-4.8-0.3c-1.6,0-3.3,0-5.1,0c-0.9,0-1.7,0-2.6,0
			c-0.9,0-1.8,0.1-2.7,0.1c-7.2,0.3-15.2,1.3-23.2,4c-2,0.7-4,1.4-6,2.3c-1,0.5-2,0.9-3,1.4c-1,0.5-1.9,1-2.9,1.6
			c-3.8,2.2-7.6,4.9-11,7.9c-7,6-13.1,13-20,19c-3.5,3-7.2,5.6-11.2,7.8c-4,2.2-8.4,3.6-12.8,4.7l-3.4,0.8c-1.1,0.2-2.3,0.3-3.4,0.5
			c-2.3,0.4-4.6,0.5-6.8,0.6c-1.1,0.1-2.3,0.1-3.5,0.1l-3.6,0l-0.9,0l-0.8-0.1l-1.7-0.1c-1.1-0.1-2.3-0.2-3.4-0.2
			c-0.7-0.1-1.4-0.2-2.1-0.2c-47.1-10.3-46.9-75.5-46.9-75.5v-32.6l-7.3,20.9l3.8,11.7h0c-0.2,2.7-0.3,5.6-0.4,8.7
			c-0.1,5.9,0.2,12.5,1.3,19.7c1.1,7.2,3.2,14.9,6.9,22.5c0.4,1,1,1.9,1.5,2.8c0.5,0.9,1,1.9,1.6,2.8c1.2,1.8,2.4,3.7,3.9,5.3
			l1.1,1.3l0.5,0.7l0.6,0.6c0.8,0.8,1.6,1.6,2.4,2.4c0.4,0.4,0.8,0.8,1.3,1.1l1.4,1.1c0.9,0.7,1.8,1.5,2.8,2.1
			c7.8,5.2,17.2,8.5,26.8,9.4c1.2,0.1,2.4,0.2,3.6,0.3l1.8,0.1l1,0.1l0.9,0l3.6,0c1.2,0,2.4,0,3.6-0.1c2.5-0.2,5-0.2,7.4-0.6
			c1.2-0.2,2.4-0.3,3.7-0.5l3.6-0.8c4.8-1.2,9.6-2.8,13.9-5.3c4.4-2.4,8.4-5.3,12-8.4c0.9-0.8,1.8-1.6,2.7-2.4
			c0.9-0.8,1.7-1.6,2.6-2.5c1.7-1.7,3.3-3.3,4.9-5c3.2-3.3,6.3-6.5,9.6-9.4c3.2-2.9,6.7-5.4,10.2-7.6c0.9-0.5,1.8-1,2.7-1.6
			c0.9-0.5,1.8-0.9,2.7-1.4c1.8-1,3.7-1.6,5.6-2.4c7.5-2.8,15.1-4.1,22.1-4.7c0.9-0.1,1.7-0.2,2.6-0.3c0.9,0,1.7-0.1,2.6-0.1
			c1.7-0.1,3.4-0.1,5-0.2c1.6,0,3.2,0,4.7,0c1.5,0,3,0,4.5,0.1c2.9,0.2,5.6,0.3,8.1,0.5c2.5,0.2,4.8,0.4,6.9,0.6
			c2.1,0.2,3.9,0.4,5.5,0.6c1.6,0.2,3,0.4,4.1,0.5c2.2,0.3,3.4,0.4,3.4,0.4S816.5,527.2,814.3,526.7z"/>
		<g id="XMLID_122_">
			<path id="XMLID_124_" class="st3" d="M713.8,539.2l-0.9-0.3c0.1-0.4,3.1-8.9,16.8-15.9c12.5-6.4,36.8-12.7,81.4-6.1l-0.1,1
				C726.3,505.4,713.9,538.8,713.8,539.2z"/>
		</g>
	</g>
	<g id="XMLID_100_">
		<path id="XMLID_111_" class="st18" d="M561.4,997.3L561.4,997.3c-4.8,0-8.7-3.9-8.7-8.7V813.6c0-4.8,3.9-8.7,8.7-8.7l0,0
			c4.8,0,8.7,3.9,8.7,8.7v174.9C570.1,993.4,566.2,997.3,561.4,997.3z"/>
		<path id="XMLID_109_" class="st19" d="M680,782H449.8l-47.7-262.6c9-2.2,14.8-11.1,13.2-20.3l-14.1-77.7c-1.7-9.6-11-16-20.5-14.2
			l-17,3.1c-9.6,1.7-16,11-14.2,20.5l14.1,77.7c0.3,1.6,0.8,3.1,1.5,4.5l52.6,289.9c1.1,6.2,5.3,11,10.8,13.2
			c1.6,0.8,3.5,1.3,5.4,1.3H680c6.6,0,12-5.4,12-12V794C692,787.4,686.6,782,680,782z"/>
		<polygon id="XMLID_115_" class="st18" points="638.6,983 561.4,983 484.2,983 438.3,1028.9 561.4,1028.9 684.5,1028.9 		"/>
		<polygon id="XMLID_112_" class="st20" points="613.5,847.8 561.4,847.8 509.3,847.8 478.4,816.9 561.4,816.9 644.4,816.9 		"/>
		<rect id="XMLID_189_" x="480" y="689" class="st18" width="9.3" height="93"/>
		<rect id="XMLID_190_" x="661.9" y="689" class="st18" width="9.3" height="93"/>
		<path id="XMLID_185_" class="st19" d="M677.2,704.5H476c-5.2,0-9.5-4.2-9.5-9.5v-21.2c0-5.2,4.2-9.5,9.5-9.5h201.2
			c5.2,0,9.5,4.2,9.5,9.5V695C686.7,700.2,682.4,704.5,677.2,704.5z"/>
	</g>
	<path id="XMLID_103_" class="st9" d="M1231,1035H334c-1.7,0-3-1.4-3-3l0,0c0-1.7,1.4-3,3-3H1231c1.7,0,3,1.4,3,3l0,0
		C1234,1033.6,1232.6,1035,1231,1035z"/>
	<g id="XMLID_142_">
		<polygon id="XMLID_55_" class="st21" points="1139.3,721.5 848,721.5 832.4,667.2 1154.6,667.2 		"/>
		<rect id="XMLID_76_" x="848" y="721.5" class="st22" width="291.3" height="307.4"/>
		<polygon id="XMLID_108_" class="st23" points="848,721.5 1139.3,840 1139.3,721.5 		"/>
		<g id="XMLID_114_">
			<path id="XMLID_129_" class="st3" d="M1127.5,1016.4H859.8V733.9h267.7V1016.4z M860.8,1015.4h265.7V734.9H860.8V1015.4z"/>
		</g>
	</g>
	<g id="XMLID_4_">
		<g id="XMLID_182_">
			<g id="XMLID_164_">
				<path id="XMLID_168_" class="st1" d="M931.9,407.5l10.8-127.8l121.3-8.5l-4.2,131.9L931.9,407.5z M948.2,285.3l-9.8,116l115.5-4
					l3.8-119.7L948.2,285.3z"/>
			</g>
			<polygon id="XMLID_165_" class="st3" points="955.5,293.4 947.1,392 1045.6,388.6 1048.9,286.8 			"/>
			<polygon id="XMLID_166_" class="st2" points="968.9,307.9 963.2,375.5 1030.6,373.1 1032.9,303.4 			"/>
		</g>
		<g id="XMLID_183_">
			<g id="XMLID_172_">
				<path id="XMLID_173_" class="st1" d="M1111.9,454.3l10.8-127.8l121.3-8.5l-4.2,131.9L1111.9,454.3z M1128.2,332.1l-9.8,116
					l115.5-4l3.8-119.7L1128.2,332.1z"/>
			</g>
			<polygon id="XMLID_171_" class="st3" points="1135.5,340.1 1127.2,438.8 1225.7,435.3 1228.9,333.5 			"/>
			<polygon id="XMLID_167_" class="st2" points="1148.9,354.6 1143.2,422.2 1210.7,419.9 1212.9,350.1 			"/>
		</g>
		<g id="XMLID_184_">
			<g id="XMLID_178_">
				<path id="XMLID_179_" class="st1" d="M1299.2,399.3l10.8-127.8l121.3-8.5l-4.2,131.9L1299.2,399.3z M1315.6,277.1l-9.8,116
					l115.5-4l3.8-119.7L1315.6,277.1z"/>
			</g>
			<polygon id="XMLID_177_" class="st3" points="1322.8,285.1 1314.5,383.8 1413,380.4 1416.2,278.6 			"/>
			<polygon id="XMLID_176_" class="st2" points="1336.2,299.6 1330.5,367.2 1398,364.9 1400.2,295.1 			"/>
		</g>
	</g>
	<g id="XMLID_1_">
		<g id="XMLID_158_">
			<polygon id="XMLID_163_" class="st3" points="1202.4,178.5 1178.3,178.5 1178,178.5 1153.9,178.5 1141.7,252.1 1178,252.1 
				1178.3,252.1 1214.6,252.1 			"/>
			<rect id="XMLID_162_" x="1154.2" y="167.8" class="st1" width="48.2" height="10.7"/>
			<polygon id="XMLID_161_" class="st24" points="1178,178.5 1188.1,252.1 1214.6,252.1 1202.4,178.5 			"/>
			<path id="XMLID_160_" class="st1" d="M1183.8,175h-11c-4,0-7.3-3.3-7.3-7.3v0c0-4,3.3-7.3,7.3-7.3h11c4,0,7.3,3.3,7.3,7.3v0
				C1191.1,171.8,1187.8,175,1183.8,175z"/>
			<rect id="XMLID_159_" x="1175" class="st1" width="6.5" height="173.1"/>
		</g>
		<g id="XMLID_157_">
			<polygon id="XMLID_143_" class="st3" points="1339.7,178.5 1315.6,178.5 1315.3,178.5 1291.2,178.5 1279,252.1 1315.3,252.1 
				1315.6,252.1 1351.9,252.1 			"/>
			<rect id="XMLID_49_" x="1291.5" y="167.8" class="st1" width="48.2" height="10.7"/>
			<polygon id="XMLID_104_" class="st24" points="1315.3,178.5 1325.4,252.1 1351.9,252.1 1339.7,178.5 			"/>
			<path id="XMLID_127_" class="st1" d="M1321.1,175h-11c-4,0-7.3-3.3-7.3-7.3v0c0-4,3.3-7.3,7.3-7.3h11c4,0,7.3,3.3,7.3,7.3v0
				C1328.4,171.8,1325.1,175,1321.1,175z"/>
			<rect id="XMLID_144_" x="1312.4" class="st1" width="6.5" height="173.1"/>
		</g>
	</g>
	<g id="XMLID_3_">
		<g id="XMLID_191_">
			<path id="XMLID_201_" class="st1" d="M1132.1,0c0,45.5-58.5,82.5-130.4,82.5c-71.9,0-130.4-37-130.4-82.5h-6
				c0,23.9,14.4,46.3,40.4,63c25.7,16.5,59.7,25.5,95.9,25.5c36.2,0,70.3-9.1,95.9-25.5c26.1-16.7,40.4-39.1,40.4-63H1132.1z"/>
		</g>
		<g id="XMLID_192_">
			<path id="XMLID_198_" class="st1" d="M833.6,0c0,45.5-22.2,82.5-49.4,82.5s-49.4-37-49.4-82.5h-6c0,23.4,5.6,45.4,15.8,62
				c10.5,17.1,24.5,26.5,39.6,26.5s29.2-9.4,39.6-26.5c10.2-16.6,15.8-38.6,15.8-62H833.6z"/>
		</g>
		<g id="XMLID_193_">
			<path id="XMLID_195_" class="st1" d="M232.1,0h-7.3c18.8,27.1,29.9,60,29.9,95.4c0,92.4-75.2,167.6-167.6,167.6
				c-31.9,0-61.8-9-87.2-24.5v7c25.6,15,55.4,23.5,87.2,23.5c95.7,0,173.6-77.9,173.6-173.6C260.8,60.2,250.2,27.4,232.1,0z"/>
		</g>
		<rect id="XMLID_11_" x="1531.9" class="st1" width="9.1" height="462.5"/>
		<circle id="XMLID_194_" class="st3" cx="1536.4" cy="466.9" r="15.3"/>
	</g>
</g>
</svg>
